<?xml version="1.0" encoding="UTF-8" standalone="no"?>
<!-- Created with Inkscape (http://www.inkscape.org/) -->

<svg
   xmlns:dc="http://purl.org/dc/elements/1.1/"
   xmlns:cc="http://creativecommons.org/ns#"
   xmlns:rdf="http://www.w3.org/1999/02/22-rdf-syntax-ns#"
   xmlns:svg="http://www.w3.org/2000/svg"
   xmlns="http://www.w3.org/2000/svg"
   xmlns:sodipodi="http://sodipodi.sourceforge.net/DTD/sodipodi-0.dtd"
   xmlns:inkscape="http://www.inkscape.org/namespaces/inkscape"
   width="90.596153mm"
   height="28.467508mm"
   viewBox="0 0 90.596153 28.467508"
   version="1.1"
   id="svg8"
   inkscape:version="0.92.3 (2405546, 2018-03-11)"
   sodipodi:docname="graphics.svg">
  <defs
     id="defs2">
    <clipPath
       id="clipPath4536"
       clipPathUnits="userSpaceOnUse">
      <path
         inkscape:connector-curvature="0"
         id="path4534"
         d="M 0,0 H 10 V 10 H 0 Z" />
    </clipPath>
    <clipPath
       id="clip1">
      <path
         id="path4734"
         d="M 0,0 H 81 V 80.699219 H 0 Z m 0,0"
         inkscape:connector-curvature="0" />
    </clipPath>
    <clipPath
       id="clip2">
      <path
         id="path4737"
         d="M 0,0 H 81 V 80.699219 H 0 Z m 0,0"
         inkscape:connector-curvature="0" />
    </clipPath>
    <clipPath
       id="clip3">
      <path
         id="path4740"
         d="m 245,32 h 11.80859 V 47 H 245 Z m 0,0"
         inkscape:connector-curvature="0" />
    </clipPath>
  </defs>
  <sodipodi:namedview
     id="base"
     pagecolor="#ffffff"
     bordercolor="#666666"
     borderopacity="1.0"
     inkscape:pageopacity="0.0"
     inkscape:pageshadow="2"
     inkscape:zoom="1.979899"
     inkscape:cx="188.83195"
     inkscape:cy="-11.048402"
     inkscape:document-units="mm"
     inkscape:current-layer="layer1"
     showgrid="false"
     fit-margin-top="0"
     fit-margin-left="0"
     fit-margin-right="0"
     fit-margin-bottom="0"
     inkscape:window-width="1366"
     inkscape:window-height="705"
     inkscape:window-x="-8"
     inkscape:window-y="-8"
     inkscape:window-maximized="1" />
  <metadata
     id="metadata5">
    <rdf:RDF>
      <cc:Work
         rdf:about="">
        <dc:format>image/svg+xml</dc:format>
        <dc:type
           rdf:resource="http://purl.org/dc/dcmitype/StillImage" />
        <dc:title></dc:title>
      </cc:Work>
    </rdf:RDF>
  </metadata>
  <g
     inkscape:label="Layer 1"
     inkscape:groupmode="layer"
     id="layer1"
     transform="translate(-13.246438,-60.147149)">
    <g
       transform="matrix(0.35277777,0,0,-0.35277777,13.246438,88.614657)"
       inkscape:label="ink_ext_XXXXXX"
       id="g4650">
      <g
         transform="scale(0.1)"
         id="g4652">
        <path
           inkscape:connector-curvature="0"
           id="path4654"
           style="fill:#231f20;fill-opacity:1;fill-rule:nonzero;stroke:none"
           d="m 403.477,537.949 c -74.297,0 -134.512,-60.195 -134.512,-134.472 0,-74.278 60.215,-134.473 134.512,-134.473 74.265,0 134.472,60.195 134.472,134.473 0,74.277 -60.207,134.472 -134.472,134.472 z m 0,-30 c 57.609,0 104.472,-46.875 104.472,-104.472 0,-57.618 -46.863,-104.473 -104.472,-104.473 -57.637,0 -104.512,46.855 -104.512,104.473 0,57.597 46.875,104.472 104.512,104.472" />
        <path
           inkscape:connector-curvature="0"
           id="path4656"
           style="fill:#231f20;fill-opacity:1;fill-rule:nonzero;stroke:none"
           d="m 403.477,672.441 c -148.555,0 -268.985,-120.41 -268.985,-268.964 0,-148.555 120.43,-268.985 268.985,-268.985 148.554,0 268.984,120.43 268.984,268.985 0,148.554 -120.43,268.964 -268.984,268.964 z m 0,-30 c 131.777,0 238.984,-107.187 238.984,-238.964 0,-131.778 -107.207,-238.985 -238.984,-238.985 -131.778,0 -238.985,107.207 -238.985,238.985 0,131.777 107.207,238.964 238.985,238.964" />
        <path
           inkscape:connector-curvature="0"
           id="path4658"
           style="fill:#231f20;fill-opacity:1;fill-rule:nonzero;stroke:none"
           d="M 403.477,806.953 C 180.645,806.953 0,626.309 0,403.477 0,180.664 180.645,0 403.477,0 c 222.812,0 403.457,180.664 403.457,403.477 0,222.832 -180.645,403.476 -403.457,403.476 z m 0,-30 c 205.918,0 373.457,-167.558 373.457,-373.476 C 776.934,197.539 609.395,30 403.477,30 197.539,30 30,197.539 30,403.477 30,609.395 197.539,776.953 403.477,776.953" />
        <path
           inkscape:connector-curvature="0"
           id="path4660"
           style="fill:#231f20;fill-opacity:1;fill-rule:nonzero;stroke:none"
           d="m 403.477,672.441 c -148.555,0 -268.985,-120.41 -268.985,-268.964 0,-148.555 120.43,-268.985 268.985,-268.985 148.554,0 268.984,120.43 268.984,268.985 0,148.554 -120.43,268.964 -268.984,268.964 z m 0,-30 c 131.777,0 238.984,-107.187 238.984,-238.964 0,-131.778 -107.207,-238.985 -238.984,-238.985 -131.778,0 -238.985,107.207 -238.985,238.985 0,131.777 107.207,238.964 238.985,238.964" />
        <path
           inkscape:connector-curvature="0"
           id="path4662"
           style="fill:#231f20;fill-opacity:1;fill-rule:nonzero;stroke:none"
           d="M 403.477,806.953 C 180.645,806.953 0,626.309 0,403.477 0,180.664 180.645,0 403.477,0 c 222.812,0 403.457,180.664 403.457,403.477 0,222.832 -180.645,403.476 -403.457,403.476 z m 0,-30 c 205.918,0 373.457,-167.558 373.457,-373.476 C 776.934,197.539 609.395,30 403.477,30 197.539,30 30,197.539 30,403.477 30,609.395 197.539,776.953 403.477,776.953" />
        <path
           inkscape:connector-curvature="0"
           id="path4664"
           style="fill:#231f20;fill-opacity:1;fill-rule:nonzero;stroke:none"
           d="M 920.293,683.578 H 1034.7 v -22.437 h -44.22 v -120.34 h -25.968 v 120.34 h -44.219 v 22.437" />
        <path
           inkscape:connector-curvature="0"
           id="path4666"
           style="fill:#231f20;fill-opacity:1;fill-rule:nonzero;stroke:none"
           d="m 1056.26,683.578 h 91.95 v -22.437 h -65.99 V 623.52 h 61.81 v -22.442 h -61.81 v -37.617 h 65.99 v -22.66 h -91.95 v 142.777" />
        <path
           inkscape:connector-curvature="0"
           id="path4668"
           style="fill:#231f20;fill-opacity:1;fill-rule:nonzero;stroke:none"
           d="m 1213.99,591.184 h 40.04 l -19.8,61.375 z m 4.4,92.394 h 32.56 l 46.86,-142.777 h -27.5 l -9.9,30.801 h -53.02 l -10.11,-30.801 h -27.5 l 48.61,142.777" />
        <path
           inkscape:connector-curvature="0"
           id="path4670"
           style="fill:#231f20;fill-opacity:1;fill-rule:nonzero;stroke:none"
           d="m 1360.29,683.578 39.16,-84.918 39.16,84.918 h 35.86 V 540.801 h -26.17 v 108.461 l -40.49,-92.84 h -16.93 l -41.81,95.918 V 540.801 h -25.95 v 142.777 h 37.17" />
        <path
           inkscape:connector-curvature="0"
           id="path4672"
           style="fill:#231f20;fill-opacity:1;fill-rule:nonzero;stroke:none"
           d="m 1014.45,444.199 c -2.34,12.465 -11.14,18.699 -26.391,18.699 -7.485,0 -13.313,-1.503 -17.493,-4.507 -4.179,-3.008 -6.269,-6.637 -6.269,-10.891 0,-4.254 1.348,-7.59 4.07,-10.012 2.707,-2.422 6.926,-4.656 12.649,-6.707 l 31.014,-12.097 c 10.57,-4.106 18.7,-9.282 24.43,-15.508 5.72,-6.242 8.58,-14.043 8.58,-23.442 0,-12.91 -4.84,-23.132 -14.52,-30.679 -9.69,-7.563 -23.47,-11.332 -41.372,-11.332 -15.835,0 -28.668,3.886 -38.496,11.664 -10.996,8.496 -16.797,20.523 -17.382,36.074 h 25.746 c 0,-11.738 6.082,-19.145 18.257,-22.219 3.665,-1.023 8.508,-1.543 14.524,-1.543 6.008,0 11.583,1.504 16.723,4.512 5.12,3 7.69,7.043 7.69,12.098 0,5.058 -1.4,8.949 -4.18,11.664 -2.78,2.711 -7.33,5.242 -13.632,7.586 l -28.386,11.218 c -10.996,4.258 -19.438,9.239 -25.293,14.961 -5.871,5.727 -8.801,13.645 -8.801,23.762 0,11.879 4.617,21.266 13.855,28.16 9.387,7.188 22.114,10.781 38.176,10.781 16.051,0 28.451,-3.707 37.181,-11.109 8.72,-7.406 13.75,-17.789 15.07,-31.133 h -25.75" />
        <path
           inkscape:connector-curvature="0"
           id="path4674"
           style="fill:#231f20;fill-opacity:1;fill-rule:nonzero;stroke:none"
           d="m 1172.41,411.973 c 0,16.351 -3.41,28.965 -10.22,37.836 -6.83,8.875 -16.03,13.312 -27.61,13.312 -11.59,0 -20.83,-4.437 -27.72,-13.312 -6.9,-8.871 -10.35,-21.485 -10.35,-37.836 0,-16.36 3.45,-28.899 10.35,-37.625 6.89,-8.723 16.13,-13.086 27.72,-13.086 11.58,0 20.78,4.363 27.61,13.086 6.81,8.726 10.22,21.265 10.22,37.625 z m -37.83,74.468 c 9.53,0 18.25,-1.578 26.17,-4.73 7.92,-3.156 14.75,-7.809 20.47,-13.973 12.02,-12.902 18.04,-31.386 18.04,-55.441 0,-24.199 -6.02,-42.895 -18.04,-56.098 -11.44,-12.32 -27.06,-18.476 -46.86,-18.476 -19.66,0 -35.2,6.3 -46.65,18.918 -12.03,13.054 -18.03,31.613 -18.03,55.656 0,24.348 6,42.976 18.03,55.883 11.29,12.172 26.92,18.261 46.87,18.261" />
        <path
           inkscape:connector-curvature="0"
           id="path4676"
           style="fill:#231f20;fill-opacity:1;fill-rule:nonzero;stroke:none"
           d="m 1257.99,483.578 62.92,-101.195 v 101.195 h 25.96 V 340.801 h -26.4 l -64.9,104.722 V 340.801 h -25.96 v 142.777 h 28.38" />
        <path
           inkscape:connector-curvature="0"
           id="path4678"
           style="fill:#231f20;fill-opacity:1;fill-rule:nonzero;stroke:none"
           d="m 1415.73,483.578 62.92,-101.195 v 101.195 h 25.96 V 340.801 h -26.4 l -64.9,104.722 V 340.801 h -25.96 v 142.777 h 28.38" />
        <path
           inkscape:connector-curvature="0"
           id="path4680"
           style="fill:#231f20;fill-opacity:1;fill-rule:nonzero;stroke:none"
           d="m 1545.31,483.578 h 91.96 v -22.437 h -66 v -37.618 h 61.82 v -22.437 h -61.82 v -37.617 h 66 v -22.668 h -91.96 v 142.777" />
        <path
           inkscape:connector-curvature="0"
           id="path4682"
           style="fill:#231f20;fill-opacity:1;fill-rule:nonzero;stroke:none"
           d="m 1702.38,483.578 62.92,-101.195 v 101.195 h 25.96 V 340.801 h -26.4 l -64.9,104.722 V 340.801 H 1674 v 142.777 h 28.38" />
        <path
           inkscape:connector-curvature="0"
           id="path4684"
           style="fill:#231f20;fill-opacity:1;fill-rule:nonzero;stroke:none"
           d="m 1845.17,483.578 31.46,-108.449 30.58,98.992 h 17.59 l 32.35,-99.441 33.44,108.898 h 29.25 l -49.05,-142.777 h -27.28 l -26.84,80.515 -26.62,-80.515 h -27.29 l -46.63,142.777 h 29.04" />
        <path
           inkscape:connector-curvature="0"
           id="path4686"
           style="fill:#231f20;fill-opacity:1;fill-rule:nonzero;stroke:none"
           d="m 2064.29,391.184 h 40.04 l -19.81,61.375 z m 4.39,92.394 h 32.56 l 46.87,-142.777 h -27.5 l -9.91,30.801 h -53.01 l -10.12,-30.801 h -27.5 l 48.61,142.777" />
        <path
           inkscape:connector-curvature="0"
           id="path4688"
           style="fill:#231f20;fill-opacity:1;fill-rule:nonzero;stroke:none"
           d="m 2260.97,363.469 c -6.17,-17.168 -17.97,-25.746 -35.42,-25.746 -17.89,0 -32.64,6.742 -44.22,20.238 -12.03,13.934 -18.04,31.758 -18.04,53.457 0,22.883 6.46,41.215 19.36,55.004 12.47,13.344 28.52,20.019 48.18,20.019 13.34,0 24.53,-2.894 33.55,-8.691 9.02,-5.797 16.09,-14.922 21.23,-27.391 l -26.63,-6.16 c -7.77,12.465 -17.59,18.699 -29.47,18.699 -10.86,0 -19.88,-4.617 -27.06,-13.855 -7.48,-9.391 -11.22,-21.93 -11.22,-37.625 0,-14.809 3.37,-26.84 10.12,-36.074 6.6,-9.106 15.4,-13.645 26.4,-13.645 9.38,0 17.08,3.008 23.1,9.024 6.16,6.164 9.24,14.59 9.24,25.3 v 0.879 l -32.12,0.657 v 16.726 h 56.98 v -73.484 h -21.12 l -2.86,22.668" />
        <path
           inkscape:connector-curvature="0"
           id="path4690"
           style="fill:#231f20;fill-opacity:1;fill-rule:nonzero;stroke:none"
           d="m 2322.13,483.578 h 91.95 v -22.437 h -65.99 v -37.618 h 61.81 v -22.437 h -61.81 v -37.617 h 65.99 v -22.668 h -91.95 v 142.777" />
        <path
           inkscape:connector-curvature="0"
           id="path4692"
           style="fill:#231f20;fill-opacity:1;fill-rule:nonzero;stroke:none"
           d="m 2479.2,483.578 62.92,-101.195 v 101.195 h 25.96 V 340.801 h -26.4 l -64.9,104.722 V 340.801 h -25.96 v 142.777 h 28.38" />
        <path
           inkscape:connector-curvature="0"
           id="path4694"
           style="fill:#231f20;fill-opacity:1;fill-rule:nonzero;stroke:none"
           d="m 968.035,191.184 h 40.045 l -19.81,61.375 z m 4.399,92.402 h 32.556 l 46.87,-142.785 h -27.5 l -9.91,30.801 h -53.012 l -10.122,-30.801 h -27.5 l 48.618,142.785" />
        <path
           inkscape:connector-curvature="0"
           id="path4696"
           style="fill:#231f20;fill-opacity:1;fill-rule:nonzero;stroke:none"
           d="m 1105.75,191.184 h 40.04 l -19.8,61.375 z m 4.4,92.402 h 32.56 l 46.86,-142.785 h -27.5 l -9.9,30.801 h -53.02 l -10.12,-30.801 h -27.5 l 48.62,142.785" />
        <path
           inkscape:connector-curvature="0"
           id="path4698"
           style="fill:#231f20;fill-opacity:1;fill-rule:nonzero;stroke:none"
           d="m 1266.13,286.434 c 8.8,0 16.43,-1.051 22.88,-3.18 6.46,-2.133 12.03,-5.102 16.72,-8.906 9.24,-7.485 15.26,-17.969 18.04,-31.465 l -27.72,-5.063 c -2.34,7.485 -5.97,13.535 -10.88,18.149 -4.93,4.629 -11.04,6.929 -18.37,6.929 -9.98,0 -18.05,-4.175 -24.2,-12.539 -6.6,-9.097 -9.9,-21.668 -9.9,-37.73 0,-16.059 2.93,-28.598 8.79,-37.617 5.87,-9.028 13.86,-13.539 23.99,-13.539 10.12,0 17.74,2.461 22.87,7.382 5.14,4.907 7.7,11.25 7.7,19.028 h 27.94 c 0,-15.988 -5.09,-28.344 -15.29,-37.074 -10.19,-8.731 -24.16,-13.086 -41.9,-13.086 -18.93,0 -33.96,6.601 -45.11,19.797 -11.29,13.488 -16.93,31.828 -16.93,55 0,23.464 5.79,41.804 17.38,55 11.14,12.609 25.81,18.914 43.99,18.914" />
        <path
           inkscape:connector-curvature="0"
           id="path4700"
           style="fill:#231f20;fill-opacity:1;fill-rule:nonzero;stroke:none"
           d="m 1380.3,283.586 v -59.633 h 62.27 v 59.633 h 25.96 V 140.801 h -25.96 v 60.5 h -62.27 v -60.5 h -25.95 v 142.785 h 25.95" />
        <path
           inkscape:connector-curvature="0"
           id="path4702"
           style="fill:#231f20;fill-opacity:1;fill-rule:nonzero;stroke:none"
           d="m 1509.45,283.586 h 91.96 v -22.445 h -66 v -37.618 h 61.82 v -22.437 h -61.82 v -37.617 h 66 v -22.668 h -91.96 v 142.785" />
        <path
           inkscape:connector-curvature="0"
           id="path4704"
           style="fill:#231f20;fill-opacity:1;fill-rule:nonzero;stroke:none"
           d="m 1666.52,283.586 62.92,-101.203 v 101.203 h 25.96 V 140.801 H 1729 l -64.9,104.715 V 140.801 h -25.96 v 142.785 h 28.38" />
      </g>
    </g>
  </g>
</svg>
